<svg width="24" height="24" viewBox="0 0 24 24" fill="none" xmlns="http://www.w3.org/2000/svg">
<g id="Icon/reply-rounded">
<path id="Vector" d="M5.92124 11.5001L9.66724 15.2461C9.76458 15.3434 9.81558 15.4581 9.82024 15.5901C9.82491 15.7221 9.77224 15.8434 9.66224 15.9541C9.55158 16.0608 9.43358 16.1148 9.30824 16.1161C9.18224 16.1181 9.06424 16.0641 8.95424 15.9541L4.56524 11.5651C4.40391 11.4038 4.32324 11.2154 4.32324 11.0001C4.32324 10.7848 4.40391 10.5964 4.56524 10.4351L8.95424 6.0461C9.04758 5.95276 9.16124 5.90276 9.29524 5.8961C9.42924 5.88943 9.55158 5.93943 9.66224 6.0461C9.77224 6.15676 9.82724 6.27576 9.82724 6.4031C9.82724 6.53043 9.77224 6.64943 9.66224 6.7601L5.92224 10.5001H15.5002C16.7422 10.5001 17.8029 10.9394 18.6822 11.8181C19.5609 12.6974 20.0002 13.7581 20.0002 15.0001V17.5001C20.0002 17.6421 19.9526 17.7611 19.8572 17.8571C19.7612 17.9524 19.6422 18.0001 19.5002 18.0001C19.3582 18.0001 19.2392 17.9524 19.1432 17.8571C19.0479 17.7611 19.0002 17.6421 19.0002 17.5001V15.0001C19.0002 14.0388 18.6572 13.2151 17.9712 12.5291C17.2852 11.8431 16.4616 11.5001 15.5002 11.5001H5.92124Z" fill="#495057"/>
</g>
</svg>
