<svg width="24" height="24" viewBox="0 0 24 24" fill="none" xmlns="http://www.w3.org/2000/svg">
<g id="Icon/arrow-drop-down-rounded">
<path id="Vector" d="M11.5648 13.873L8.88784 11.196C8.85117 11.1587 8.82017 11.1157 8.79484 11.067C8.7695 11.0183 8.75717 10.966 8.75784 10.91C8.75784 10.798 8.7945 10.7017 8.86784 10.621C8.9425 10.5403 9.0405 10.5 9.16184 10.5H14.8378C14.9592 10.5 15.0568 10.5413 15.1308 10.624C15.2048 10.7067 15.2418 10.803 15.2418 10.913C15.2418 10.9397 15.1985 11.034 15.1118 11.196L12.4348 13.873C12.3728 13.9343 12.3062 13.9817 12.2348 14.015C12.1635 14.0483 12.0852 14.065 11.9998 14.065C11.9145 14.065 11.8362 14.0483 11.7648 14.015C11.6935 13.9817 11.6268 13.9343 11.5648 13.873Z" fill="#495057"/>
</g>
</svg>
