<svg width="24" height="24" viewBox="0 0 24 24" fill="none" xmlns="http://www.w3.org/2000/svg">
<g id="Icon/more-horiz">
<path id="Vector" d="M6.46192 13C6.18658 13 5.95092 12.902 5.75492 12.706C5.55892 12.51 5.46125 12.2747 5.46192 12C5.46192 11.7247 5.55958 11.4893 5.75492 11.294C5.95025 11.0987 6.18592 11.0007 6.46192 11C6.73658 11 6.97192 11.098 7.16792 11.294C7.36392 11.49 7.46192 11.7253 7.46192 12C7.46192 12.2753 7.36392 12.5107 7.16792 12.706C6.97192 12.9013 6.73658 12.9993 6.46192 13ZM11.9999 13C11.7246 13 11.4893 12.902 11.2939 12.706C11.0986 12.51 11.0006 12.2747 10.9999 12C10.9999 11.7247 11.0979 11.4893 11.2939 11.294C11.4899 11.0987 11.7253 11.0007 11.9999 11C12.2753 11 12.5106 11.098 12.7059 11.294C12.9013 11.49 12.9993 11.7253 12.9999 12C12.9999 12.2753 12.9019 12.5107 12.7059 12.706C12.5099 12.9013 12.2746 12.9993 11.9999 13ZM17.5379 13C17.2633 13 17.0279 12.902 16.8319 12.706C16.6359 12.51 16.5379 12.2747 16.5379 12C16.5379 11.7247 16.6359 11.4893 16.8319 11.294C17.0279 11.0987 17.2633 11.0007 17.5379 11C17.8133 11 18.0489 11.098 18.2449 11.294C18.4409 11.49 18.5386 11.7253 18.5379 12C18.5379 12.2753 18.4403 12.5107 18.2449 12.706C18.0496 12.9013 17.8139 12.9993 17.5379 13Z" fill="#495057"/>
</g>
</svg>
