<?xml version="1.0" encoding="utf-8"?>
<!-- Generator: Adobe Illustrator 26.0.3, SVG Export Plug-In . SVG Version: 6.00 Build 0)  -->
<svg version="1.0" id="katman_1" xmlns="http://www.w3.org/2000/svg" xmlns:xlink="http://www.w3.org/1999/xlink" x="0px" y="0px"
	 viewBox="0 0 600 450" style="enable-background:new 0 0 600 450;" xml:space="preserve">
<style type="text/css">
	.st0{fill:#010202;}
</style>
<circle class="st0" cx="427.9" cy="227.8" r="22.9"/>
<path class="st0" d="M481.4,187.4c-1.2-3.2-2.8-5.5-5.1-7.9c-2.4-2.4-4.7-3.9-7.9-5.1c-2.4-0.9-6-2-12.7-2.4
	c-7.2-0.3-9.4-0.4-27.7-0.4s-20.5,0-27.7,0.4c-6.7,0.3-10.3,1.4-12.7,2.4c-3.2,1.2-5.5,2.8-7.9,5.1c-2.4,2.4-3.9,4.7-5.1,7.9
	c-0.9,2.4-2,6-2.4,12.7c-0.3,7.2-0.4,9.4-0.4,27.7s0,20.5,0.4,27.7c0.3,6.7,1.4,10.3,2.4,12.7c1.2,3.2,2.8,5.5,5.1,7.9
	c2.4,2.4,4.7,3.9,7.9,5.1c2.4,0.9,6,2,12.7,2.4c7.2,0.3,9.4,0.4,27.7,0.4s20.5,0,27.7-0.4c6.7-0.3,10.3-1.4,12.7-2.4
	c3.2-1.2,5.5-2.8,7.9-5.1c2.4-2.4,3.9-4.7,5.1-7.9c0.9-2.4,2-6,2.4-12.7c0.3-7.2,0.4-9.4,0.4-27.7s0-20.5-0.4-27.7
	C483.5,193.4,482.3,189.8,481.4,187.4z M427.9,263.1c-19.5,0-35.2-15.8-35.2-35.2s15.8-35.2,35.2-35.2c19.5,0,35.2,15.8,35.2,35.2
	C463.1,247.3,447.3,263.1,427.9,263.1z M464.5,199.4c-4.6,0-8.2-3.7-8.2-8.2c0-4.6,3.7-8.2,8.2-8.2c4.6,0,8.2,3.7,8.2,8.2
	C472.8,195.8,469.1,199.4,464.5,199.4z"/>
<path class="st0" d="M427.8,106.7c-65.6,0-118.7,53.1-118.7,118.7s53.1,118.7,118.7,118.7s118.7-53.1,118.7-118.7
	S493.3,106.7,427.8,106.7z M496.1,256.1c-0.3,7.3-1.5,12.3-3.2,16.7c-1.8,4.5-4.1,8.4-7.9,12.2c-3.8,3.8-7.6,6.2-12.2,7.9
	c-4.4,1.7-9.4,2.8-16.7,3.2c-7.3,0.3-9.6,0.4-28.3,0.4s-21-0.1-28.3-0.4s-12.3-1.5-16.7-3.2c-4.5-1.8-8.4-4.1-12.2-7.9
	c-3.8-3.8-6.2-7.6-7.9-12.2c-1.7-4.4-2.8-9.4-3.2-16.7c-0.3-7.3-0.4-9.6-0.4-28.3s0.1-21,0.4-28.3s1.5-12.3,3.2-16.7
	c1.8-4.5,4.1-8.4,7.9-12.2c3.8-3.8,7.6-6.2,12.2-7.9c4.4-1.7,9.4-2.8,16.7-3.2c7.3-0.3,9.6-0.4,28.3-0.4s21,0.1,28.3,0.4
	c7.3,0.3,12.3,1.5,16.7,3.2c4.5,1.8,8.4,4.1,12.2,7.9c3.8,3.8,6.2,7.6,7.9,12.2c1.7,4.4,2.8,9.4,3.2,16.7s0.4,9.6,0.4,28.3
	S496.4,248.8,496.1,256.1z"/>
<path class="st0" d="M164.7,106.7C99.1,106.7,46,159.8,46,225.4s53.1,118.7,118.7,118.7s118.7-53.1,118.7-118.7
	C283.4,159.8,230.2,106.7,164.7,106.7z M199.6,178.7c0,0-11.8,0-16.5,0c-5.8,0-7,2.4-7,8.4c0,5,0,14.5,0,14.5h23.5l-2.3,25.5H176
	v76.3h-30.5v-76h-15.9v-25.9h15.9c0,0,0-3.7,0-20.4c0-19.1,10.3-29.1,32.9-29.1c3.7,0,21.1,0,21.1,0L199.6,178.7L199.6,178.7z"/>
</svg>
